#!OML:ASF E:\I on waltz\AllaLogoMonkeySwing\Project 1\Capture day 1\Session 1\Subject1.ASF
:FULLY-SPECIFIED
:DEGREES
401
root 0.773561 17.8625 4.99633 5.14183 3.38833 0.804773
lowerback 5.42562 -0.140624 -4.15537
upperback -0.519781 -0.417107 1.27259
thorax -3.54538 -0.114626 3.68962
lowerneck -5.02401 -4.23511 -3.90711
upperneck -1.6441 -5.48849 9.32396
head 0.76432 -2.65065 3.57178
rclavicle -5.2181e-016 -1.98785e-014
rhumerus -36.9529 -26.7688 -67.5715
rradius 22.002
rwrist 7.58048
rhand -6.0421 -35.5969
rfingers 7.12502
rthumb 19.7919 -64.6093
lclavicle -5.2181e-016 -1.98785e-014
lhumerus -48.3104 33.6298 61.0948
lradius 29.6269
lwrist -10.1204
lhand -4.24911 -11.2815
lfingers 7.12502
lthumb 21.5147 17.5436
rfemur -3.58908 -1.23101 14.1916
rtibia 14.3628
rfoot -13.868 -15.5575
rtoes 19.5978
lfemur -3.68543 0.0602514 -15.3174
ltibia 12.4698
lfoot -14.4905 2.92891
ltoes -29.0392
402
root 0.77258 17.8607 5.04721 5.00914 3.37724 0.776056
lowerback 4.95113 -0.183717 -4.18052
upperback -0.912568 -0.462719 1.25321
thorax -3.6815 -0.126517 3.68524
lowerneck -5.46637 -4.31044 -3.81873
upperneck -0.793359 -5.63806 8.90588
head 1.10818 -2.70332 3.39072
rclavicle 7.45443e-017 1.39149e-015
rhumerus -37.0155 -28.0044 -67.0101
rradius 20.9435
rwrist 9.00605
rhand -5.91774 -35.7184
rfingers 7.12502
rthumb 19.9114 -64.7183
lclavicle 7.45443e-017 1.39149e-015
lhumerus -48.2065 34.3671 61.2844
lradius 29.4355
lwrist -10.0141
lhand -4.89999 -10.8694
lfingers 7.12502
lthumb 20.8895 18.0259
rfemur -3.01599 -1.13738 14.2501
rtibia 13.9375
rfoot -13.8787 -15.5729
rtoes 19.5075
lfemur -3.09734 -0.106965 -15.2733
ltibia 12.0182
lfoot -14.4806 2.98466
ltoes -29.0225
403
root 0.770708 17.8581 5.09599 4.88889 3.31068 0.816665
lowerback 4.41505 -0.16314 -4.24016
upperback -1.21321 -0.423328 1.17689
thorax -3.69507 -0.100633 3.63301
lowerneck -6.08783 -4.41841 -3.76237
upperneck 0.125211 -5.82806 8.5872
head 1.51493 -2.77176 3.24763
rclavicle -1.01877e-015 1.55052e-014
rhumerus -37.0294 -29.0607 -66.6402
rradius 20.0282
rwrist 10.3201
rhand -5.94148 -35.8045
rfingers 7.12502
rthumb 19.8886 -64.8069
lclavicle -1.01877e-015 1.55052e-014
lhumerus -47.4963 34.2306 62.3909
lradius 29.4798
lwrist -9.59339
lhand -5.22911 -10.4885
lfingers 7.12502
lthumb 20.5733 18.4413
rfemur -2.53592 -0.899249 14.2559
rtibia 13.6183
rfoot -13.9281 -15.6747
rtoes 19.4907
lfemur -2.56393 -0.313751 -15.3454
ltibia 11.6364
lfoot -14.4092 3.12935
ltoes -28.7953
404
root 0.766968 17.854 5.14274 4.71941 3.26218 0.890334
lowerback 3.92131 -0.142811 -4.33836
upperback -1.44508 -0.387476 1.07098
thorax -3.66054 -0.0783735 3.57249
lowerneck -6.35211 -4.46046 -3.88207
upperneck 0.618696 -5.90335 8.59867
head 1.73446 -2.79472 3.26523
rclavicle 2.16178e-015 3.97569e-016
rhumerus -36.9014 -29.8128 -66.555
rradius 19.2304
rwrist 11.4916
rhand -6.11044 -35.7334
rfingers 7.12502
rthumb 19.7262 -64.7525
lclavicle 2.16178e-015 3.97569e-016
lhumerus -46.5422 33.7805 63.8051
lradius 29.6441
lwrist -9.46175
lhand -5.01576 -10.4601
lfingers 7.12502
lthumb 20.7783 18.4474
rfemur -2.01625 -0.620463 14.2382
rtibia 13.2986
rfoot -13.9653 -15.8142
rtoes 19.5963
lfemur -2.02164 -0.500555 -15.4703
ltibia 11.2962
lfoot -14.3565 3.32613
ltoes -28.7995
405
root 0.764583 17.8504 5.18702 4.48577 3.22024 0.923275
lowerback 3.53961 -0.154894 -4.38181
upperback -1.66564 -0.395672 0.974916
thorax -3.67344 -0.0782249 3.4956
lowerneck -6.44355 -4.45885 -3.99097
upperneck 1.01485 -5.91716 8.59811
head 1.88681 -2.79324 3.28303
rclavicle 1.31943e-014 -7.95139e-016
rhumerus -36.6702 -30.4081 -66.6137
rradius 18.5284
rwrist 12.8707
rhand -5.92403 -35.8827
rfingers 7.12502
rthumb 19.9054 -64.8833
lclavicle 1.31943e-014 -7.95139e-016
lhumerus -45.545 32.8976 65.475
lradius 30.0408
lwrist -9.40622
lhand -4.42852 -10.524
lfingers 7.12502
lthumb 21.3424 18.3208
rfemur -1.44068 -0.336809 14.2704
rtibia 12.9766
rfoot -14.0205 -15.9789
rtoes 20.2087
lfemur -1.42125 -0.56005 -15.5351
ltibia 10.9409
lfoot -14.31 3.50446
ltoes -29.485
